<?xml version="1.0" encoding="utf-8"?>
<!-- Generator: Adobe Illustrator 24.2.0, SVG Export Plug-In . SVG Version: 6.00 Build 0)  -->
<svg version="1.1" id="Layer_1" xmlns="http://www.w3.org/2000/svg" xmlns:xlink="http://www.w3.org/1999/xlink" x="0px" y="0px"
	 viewBox="0 0 1046 282" style="enable-background:new 0 0 1046 282;" xml:space="preserve">
<style type="text/css">
	.st0{fill:none;}
	.st1{fill:#1D1659;}
	.st2{fill:url(#SVGID_1_);}
</style>
<rect class="st0" width="1046" height="284"/>
<g>
	<path class="st1" d="M341.2,75.3c0-0.8,0.8-1.6,1.6-1.6h7.8c0.8,0,1.6,0.8,1.6,1.6v55.8c0,0.8-0.8,1.6-1.6,1.6h-7.8
		c-0.8,0-1.6-0.8-1.6-1.6V75.3z"/>
	<path class="st1" d="M380.1,74.4c0-0.8,0.8-1.5,1.6-1.5h2.1l35.1,37.3h0.1V75.3c0-0.8,0.7-1.6,1.6-1.6h7.8c0.8,0,1.6,0.8,1.6,1.6
		V132c0,0.8-0.8,1.5-1.6,1.5h-2l-35.2-38.7H391v36.2c0,0.8-0.7,1.6-1.6,1.6h-7.7c-0.8,0-1.6-0.8-1.6-1.6V74.4z"/>
	<path class="st1" d="M454.4,124.5l3-5.2c0.7-1.2,2.1-1.2,2.9-0.6c0.4,0.3,7.2,5.2,12.7,5.2c4.4,0,7.7-2.9,7.7-6.5
		c0-4.3-3.6-7.2-10.7-10.1c-7.9-3.2-15.8-8.3-15.8-18.2c0-7.5,5.6-16.2,19-16.2c8.6,0,15.2,4.4,16.9,5.6c0.8,0.5,1.1,1.9,0.5,2.8
		l-3.2,4.8c-0.7,1-1.9,1.7-2.9,1c-0.7-0.4-7.1-4.6-11.7-4.6c-4.8,0-7.4,3.2-7.4,5.9c0,4,3.1,6.7,9.9,9.4c8.2,3.3,17.6,8.2,17.6,19
		c0,8.7-7.5,16.7-19.4,16.7c-10.6,0-16.9-5-18.5-6.6C454,126.2,453.6,125.8,454.4,124.5z"/>
	<path class="st1" d="M524,83.8h-12.9c-0.9,0-1.6-0.8-1.6-1.6v-6.9c0-0.8,0.7-1.6,1.6-1.6h36.8c0.9,0,1.6,0.8,1.6,1.6v6.9
		c0,0.8-0.7,1.6-1.6,1.6H535v47.3c0,0.8-0.8,1.6-1.6,1.6h-7.8c-0.8,0-1.6-0.8-1.6-1.6V83.8z"/>
	<path class="st1" d="M570.9,75.3c0-0.8,0.8-1.6,1.6-1.6h7.8c0.8,0,1.6,0.8,1.6,1.6v55.8c0,0.8-0.8,1.6-1.6,1.6h-7.8
		c-0.8,0-1.6-0.8-1.6-1.6V75.3z"/>
	<path class="st1" d="M617.7,83.8h-12.9c-0.9,0-1.6-0.8-1.6-1.6v-6.9c0-0.8,0.7-1.6,1.6-1.6h36.8c0.9,0,1.6,0.8,1.6,1.6v6.9
		c0,0.8-0.7,1.6-1.6,1.6h-12.9v47.3c0,0.8-0.8,1.6-1.6,1.6h-7.8c-0.8,0-1.6-0.8-1.6-1.6V83.8z"/>
	<path class="st1" d="M663.7,75.3c0-0.8,0.8-1.6,1.6-1.6h8c0.9,0,1.6,0.8,1.6,1.6v34.5c0,7.2,4.9,12.8,12.2,12.8s12.3-5.6,12.3-12.7
		V75.3c0-0.8,0.7-1.6,1.6-1.6h8c0.8,0,1.6,0.8,1.6,1.6v35.1c0,12.8-10.2,23.2-23.5,23.2c-13.2,0-23.4-10.4-23.4-23.2V75.3z"/>
	<path class="st1" d="M745.6,83.8h-12.9c-0.9,0-1.6-0.8-1.6-1.6v-6.9c0-0.8,0.7-1.6,1.6-1.6h36.8c0.9,0,1.6,0.8,1.6,1.6v6.9
		c0,0.8-0.7,1.6-1.6,1.6h-12.9v47.3c0,0.8-0.8,1.6-1.6,1.6h-7.8c-0.8,0-1.6-0.8-1.6-1.6V83.8z"/>
	<path class="st1" d="M817.9,72.9c16.9,0,30.3,13.6,30.3,30.4s-13.5,30.3-30.3,30.3c-16.9,0-30.3-13.4-30.3-30.3
		S801.1,72.9,817.9,72.9z M817.9,122.6c10.6,0,19.4-8.7,19.4-19.3s-8.8-19.5-19.4-19.5c-10.6,0-19.3,8.8-19.3,19.5
		S807.3,122.6,817.9,122.6z"/>
	<path class="st1" d="M341.2,150.9c0-0.8,0.8-1.6,1.6-1.6h7.8c0.9,0,1.6,0.8,1.6,1.6v22.3h27.5v-22.3c0-0.8,0.7-1.6,1.6-1.6h7.8
		c0.8,0,1.6,0.8,1.6,1.6v55.8c0,0.8-0.8,1.6-1.6,1.6h-7.8c-0.9,0-1.6-0.8-1.6-1.6v-23.3h-27.5v23.3c0,0.8-0.7,1.6-1.6,1.6h-7.8
		c-0.8,0-1.6-0.8-1.6-1.6V150.9z"/>
	<path class="st1" d="M487,150.9c0-0.8,0.7-1.6,1.6-1.6h7.8c0.8,0,1.6,0.8,1.6,1.6v47.3h21.5c0.9,0,1.6,0.8,1.6,1.6v6.9
		c0,0.8-0.7,1.6-1.6,1.6h-30.8c-0.9,0-1.6-0.8-1.6-1.6V150.9z"/>
	<path class="st1" d="M542.1,150.9c0-0.8,0.7-1.6,1.6-1.6h7.8c0.8,0,1.6,0.8,1.6,1.6v47.3h21.5c0.9,0,1.6,0.8,1.6,1.6v6.9
		c0,0.8-0.7,1.6-1.6,1.6h-30.8c-0.9,0-1.6-0.8-1.6-1.6V150.9z"/>
	<path class="st1" d="M597.2,150.9c0-0.8,0.7-1.6,1.6-1.6h34.3c0.9,0,1.6,0.8,1.6,1.6v6.9c0,0.8-0.7,1.6-1.6,1.6h-24.9v13.8H629
		c0.8,0,1.6,0.8,1.6,1.6v7c0,0.9-0.8,1.6-1.6,1.6h-20.8v14.8h24.9c0.9,0,1.6,0.8,1.6,1.6v6.9c0,0.8-0.7,1.6-1.6,1.6h-34.3
		c-0.9,0-1.6-0.8-1.6-1.6V150.9z"/>
	<path class="st1" d="M659.3,150.9c0-0.8,0.7-1.6,1.6-1.6h7.8c0.8,0,1.6,0.8,1.6,1.6v47.3h21.5c0.9,0,1.6,0.8,1.6,1.6v6.9
		c0,0.8-0.7,1.6-1.6,1.6h-30.8c-0.9,0-1.6-0.8-1.6-1.6V150.9z"/>
	<path class="st1" d="M712.8,150.9c0-0.8,0.8-1.6,1.6-1.6h8c0.9,0,1.6,0.8,1.6,1.6v34.5c0,7.2,4.9,12.8,12.2,12.8
		s12.3-5.6,12.3-12.7v-34.6c0-0.8,0.7-1.6,1.6-1.6h8c0.8,0,1.6,0.8,1.6,1.6v35.1c0,12.8-10.2,23.2-23.5,23.2
		c-13.2,0-23.4-10.4-23.4-23.2V150.9z"/>
	<path class="st1" d="M776,200.9l4.4-4.5c0.9-0.8,1.8-0.7,2.5,0.1c1.1,1.2,2.8,2.7,5.6,2.7c3.3,0,6.7-2.7,6.7-8.5v-39.8
		c0-0.8,0.7-1.6,1.6-1.6h7.9c0.9,0,1.6,0.8,1.6,1.6v39.8c0,11.7-7.8,18.5-17.7,18.5c-7.3,0-11.4-4.4-12.8-6.2
		C775.4,202.3,775.5,201.5,776,200.9z"/>
	<path class="st1" d="M901,150.9c0-0.8,0.8-1.6,1.6-1.6h7.8c0.9,0,1.6,0.8,1.6,1.6v22.3h27.5v-22.3c0-0.8,0.7-1.6,1.6-1.6h7.8
		c0.8,0,1.6,0.8,1.6,1.6v55.8c0,0.8-0.8,1.6-1.6,1.6h-7.8c-0.9,0-1.6-0.8-1.6-1.6v-23.3h-27.5v23.3c0,0.8-0.7,1.6-1.6,1.6h-7.8
		c-0.8,0-1.6-0.8-1.6-1.6V150.9z"/>
	<path class="st1" d="M466.8,206.1l-26-56.7c-0.3-0.5-0.6-0.9-1.4-0.9h-0.8c-0.8,0-1.2,0.4-1.4,0.9l-26.2,56.7
		c-0.5,1.1,0.2,2.2,1.4,2.2h7.3c1.3,0,2.1-0.8,2.4-1.7l16.5-37h0.3l16.7,37c0.6,1.2,1.2,1.7,2.4,1.7h7.3
		C466.6,208.3,467.3,207.2,466.8,206.1z"/>
	<path class="st1" d="M880.8,206.1l-26-56.7c-0.3-0.5-0.6-0.9-1.4-0.9h-0.8c-0.8,0-1.2,0.4-1.4,0.9l-26.2,56.7
		c-0.5,1.1,0.2,2.2,1.4,2.2h7.3c1.3,0,2.1-0.8,2.4-1.7l16.5-37h0.3l16.7,37c0.6,1.2,1.2,1.7,2.4,1.7h7.3
		C880.6,208.3,881.3,207.2,880.8,206.1z"/>
	<g>
		<g>
			<path class="st1" d="M274,163v43.7c0,0.9,0.7,1.6,1.6,1.6h7.9c0.9,0,1.6-0.7,1.6-1.6v-31C281.6,171.2,277.9,166.9,274,163z"/>
			<path class="st1" d="M283.4,73.7h-7.9c-0.9,0-1.6,0.7-1.6,1.6v72.6c3.9,3.3,7.6,6.7,11,10.4v-83C285,74.4,284.3,73.7,283.4,73.7z
				"/>
		</g>
		<g>
			<path class="st1" d="M106.5,147.9V75.3c0-0.9-0.7-1.6-1.6-1.6h-7.9c-0.9,0-1.6,0.7-1.6,1.6v83C99,154.6,102.7,151.2,106.5,147.9z
				"/>
			<path class="st1" d="M95.5,175.7v31c0,0.9,0.7,1.6,1.6,1.6h7.9c0.9,0,1.6-0.7,1.6-1.6V163C102.6,166.9,98.9,171.2,95.5,175.7z"/>
		</g>
		<g>
			<linearGradient id="SVGID_1_" gradientUnits="userSpaceOnUse" x1="190.2543" y1="132.0782" x2="190.2543" y2="162.0667">
				<stop  offset="0" style="stop-color:#FFD300"/>
				<stop  offset="1" style="stop-color:#D89A13"/>
			</linearGradient>
			<path class="st2" d="M95.5,175.7c21.6-28.8,56-47.4,94.8-47.4s73.1,18.6,94.8,47.4v-17.4c-23.8-25.2-57.4-40.9-94.8-40.9
				s-71,15.7-94.8,40.9V175.7z"/>
		</g>
	</g>
</g>
</svg>
